<svg xmlns="http://www.w3.org/2000/svg" viewBox="0 0 1200 630">
  <defs>
    <linearGradient id="bg" x1="0" x2="1" y1="0" y2="1"><stop stop-color="#07111f"/><stop offset=".55" stop-color="#102b49"/><stop offset="1" stop-color="#07111f"/></linearGradient>
    <linearGradient id="beam" x1="0" x2="1"><stop stop-color="#ff6b35"/><stop offset="1" stop-color="#ffb000"/></linearGradient>
  </defs>
  <rect width="1200" height="630" fill="url(#bg)"/>
  <g opacity=".15" stroke="#fffaf2"><path d="M0 110h1200M0 220h1200M0 330h1200M0 440h1200M0 550h1200M140 0v630M300 0v630M460 0v630M620 0v630M780 0v630M940 0v630M1100 0v630"/></g>
  <text x="72" y="130" fill="#ffb000" font-family="Inter,Arial,sans-serif" font-size="28" font-weight="800" letter-spacing="6">FLEETSCAN TÉCNICA</text>
  <text x="72" y="265" fill="#fffaf2" font-family="Inter,Arial,sans-serif" font-size="78" font-weight="900">Escaneo vehicular</text>
  <text x="72" y="350" fill="#fffaf2" font-family="Inter,Arial,sans-serif" font-size="78" font-weight="900">para camiones y flotas</text>
  <text x="76" y="425" fill="#cbd5e1" font-family="Inter,Arial,sans-serif" font-size="30">Diagnóstico electrónico, mantenimiento preventivo y reportes claros.</text>
  <path d="M700 432h278l24-78h70l70 78h28v48h-38" fill="none" stroke="#fffaf2" stroke-width="10" stroke-linecap="round" stroke-linejoin="round"/>
  <path d="M722 432l30-94h168l58 94M1012 374h54l52 58" fill="none" stroke="#fffaf2" stroke-width="10" stroke-linecap="round" stroke-linejoin="round" opacity=".88"/>
  <circle cx="790" cy="482" r="36" fill="none" stroke="#ffb000" stroke-width="10"/>
  <circle cx="1066" cy="482" r="36" fill="none" stroke="#ffb000" stroke-width="10"/>
  <rect x="888" y="300" width="58" height="260" rx="29" fill="url(#beam)" opacity=".55"/>
</svg>
